PathFileType	4	(X/Y/Z)	26_1_30_p1_0-343.trc
DataRate	CameraRate	NumFrames	NumMarkers	Units	OrigDataRate	OrigDataStartFrame	OrigNumFrames
59.0	59.0	7	27	m	59.0	215	344
Frame#	Time	RHip			RKnee			RAnkle			RBigToe			RSmallToe			RHeel			LHip			LKnee			LAnkle			LBigToe			LSmallToe			LHeel			Neck			Head			Nose			RShoulder			RElbow			RWrist			RThumb			RIndex			RPinky			LShoulder			LElbow			LWrist			LThumb			LIndex			LPinky			
		X1	Y1	Z1	X2	Y2	Z2	X3	Y3	Z3	X4	Y4	Z4	X5	Y5	Z5	X6	Y6	Z6	X7	Y7	Z7	X8	Y8	Z8	X9	Y9	Z9	X10	Y10	Z10	X11	Y11	Z11	X12	Y12	Z12	X13	Y13	Z13	X14	Y14	Z14	X15	Y15	Z15	X16	Y16	Z16	X17	Y17	Z17	X18	Y18	Z18	X19	Y19	Z19	X20	Y20	Z20	X21	Y21	Z21	X22	Y22	Z22	X23	Y23	Z23	X24	Y24	Z24	X25	Y25	Z25	X26	Y26	Z26	X27	Y27	Z27	
215	3.6440677966101696	0.2961070601347033	0.7527108175164957	0.8917172695308248	0.25544268155008976	0.9153414425734954	1.2664321127268925	0.23442693224505756	1.2282863531178707	1.6483936568665727	0.21957574378359507	0.945318346539742	1.6732238599606868	0.25911147980043203	1.042490474144385	1.6920646611283316	0.24272984760333927	1.3116656489382532	1.6796659376616612	0.06485945724706171	0.7962973127115874	0.8835677245481195	0.10144351856670447	0.9634631010644994	1.2539961769980372	0.1281863067185867	1.270290151385554	1.649404237513994	0.09900118847633343	0.9908038743720226	1.683182530620153	0.06011576078945915	1.063145569305773	1.675105895785028	0.13764271326330121	1.3401388240089993	1.6954046273967749	0.2155185905554921	0.510324029029825	0.3189404173654441	0.2266552737414363	0.3795899205371531	0.11649478578358358	0.20880015260298682	0.3860313622650806	0.2482685002306528	0.4058923258081517	0.5623963408129208	0.3929916872558941	0.6312043176473169	0.5683370617002224	0.3864638543088576	0.578938333016283	0.436704032274936	0.2334748947272996	0.47434852556108525	0.36758550566969994	0.2288946733504853	0.48689737810853556	0.3967957054104485	0.20404744522592336	0.5394757804456708	0.3922395007075953	0.215156426704832	0.014254025153072869	0.5291464142433983	0.36366177992963916	-0.2218798593426075	0.5649478083463172	0.3377761734687888	-0.12141185871966541	0.465476768307828	0.1765132410582807	-0.006667368789308661	0.4258558317422974	0.16400023988636564	-0.018965518049111747	0.4399030210341659	0.1402719893906166	-0.08208935586753321	0.3888753916560197	0.1736757686237105
216	3.6610169491525424	0.2962051569242017	0.7526023526919524	0.8917238786757672	0.25444543677683956	0.9119210859822212	1.2583112079857677	0.23551603453179687	1.2256183923937611	1.6436249255449369	0.20989338913756478	0.9532227417386443	1.6702910021480966	0.25884781335720636	1.0417736672570377	1.6919991430370962	0.24299121527227058	1.3109801228820523	1.678997953584164	0.06889023635635357	0.7816003649683972	0.8848500749610185	0.10125866712928479	0.9635887280826763	1.2500831034560573	0.13215730480781768	1.2506441623593099	1.6466531051433584	0.09893785350976492	0.9911888914707986	1.6833227604055203	0.0556911726033465	1.0817793757289964	1.678222377858788	0.14415476723593348	1.3513441400694586	1.6975668857350088	0.21210017272207649	0.5228831662528693	0.31535217470653065	0.2266954736166537	0.37853912523977934	0.11370213750506837	0.20884963184910008	0.38576518912639235	0.24830400085625817	0.40544621799813363	0.5601423765255715	0.38996014364923204	0.6312405053766662	0.5681541680675088	0.3865733223809949	0.5738900904706863	0.4267006898741632	0.23689341334660935	0.4740735207986614	0.3629116539499405	0.22605781640166864	0.49447352237693365	0.37466472767395737	0.210631186116741	0.5411109694540216	0.3785655251913663	0.2190072185519874	0.014325971784038046	0.5293139488198106	0.36374698145113404	-0.2217160017512974	0.5649019124623956	0.3377396299990812	-0.11887077501538496	0.47758456870041005	0.17223746219489489	-0.010327540261385756	0.4364743481638332	0.1573788126330721	-0.022707375820253794	0.4494423198586413	0.13335252610652648	-0.07811890759527192	0.3864969114948664	0.16723288325587188
217	3.6779661016949152	0.2993459101634752	0.737384988347115	0.8929511273847236	0.2544316592259818	0.9116376854568011	1.2582259387668286	0.22996264477548828	1.2115657671023847	1.6460450196719811	0.21751539591265584	0.9383163661169668	1.6683201418911675	0.258793693678958	1.0411433268625478	1.6919425124931766	0.2428458582808128	1.3113506144357006	1.6792377844720703	0.0655267148868471	0.7679939051310554	0.8859472981851985	0.10130694149988065	0.9631092249752268	1.2500979328956843	0.12821061908972978	1.2702006854982488	1.6493585255219987	0.09819793808460699	0.9869465583006033	1.6788367321089002	0.05998873321451374	1.0624918820929252	1.6754758948160524	0.14413958396950133	1.352169018734985	1.6979429057804103	0.21206596409110212	0.5230194745149799	0.3152758051500873	0.22655392933175925	0.3794094094584794	0.11652764876907205	0.20878377509639995	0.3858631241694685	0.24833470047546843	0.40542162628700223	0.5604507656947998	0.3898343712826153	0.6311335502071502	0.5686787524085775	0.3865149880375781	0.5721634323605547	0.43966363776117384	0.23261592461672323	0.4701102826906747	0.3547500605345119	0.23168065437153929	0.48455522644082727	0.370536776611226	0.2132936032664948	0.5393165077144824	0.3913569135973363	0.21528846621930398	0.014284247521738812	0.5292927159212878	0.3636793090725816	-0.2217892119801609	0.5651294043401575	0.337697565766972	-0.12150386618623497	0.4653704628272946	0.1763621447057969	-0.010316971251864275	0.43619490702221264	0.1571333833235158	-0.018915661097893118	0.43751085685613483	0.13761025563478355	-0.07815317015396611	0.38850065651557053	0.17053961916716728
218	3.694915254237288	0.29618184975760603	0.752622306802285	0.8917202283237792	0.2554355997162786	0.9151616816721165	1.266367072284124	0.22995351085859614	1.21158560761949	1.646032441360231	0.21777296932969575	0.9379430949342743	1.66814939077417	0.2577526515402226	1.0374166543446373	1.6875647169028565	0.24281653528808816	1.3112629955138908	1.6791429156783424	0.06486358045425408	0.7963804718815416	0.8835381281829321	0.10127023077536702	0.9632289551562929	1.2501604373041255	0.13220643093057333	1.2501675448264205	1.6464769004538133	0.09468283428256821	0.9723281303860916	1.6762871490599884	0.0567837517295085	1.0474039358155978	1.672549453640393	0.14413241006098396	1.3518355917709577	1.6978135331834132	0.21204966364827346	0.5230977674677879	0.31519497586389744	0.22651864631899093	0.37853403024209037	0.11353290140187772	0.20880858009509928	0.3858218107651192	0.2482995262253115	0.4027165565709856	0.573675169593579	0.38251103146910015	0.6312445120978625	0.5678873382046784	0.38644165449969864	0.572024399270613	0.43985964286273904	0.23273445475863777	0.4685139046135138	0.3685886250520309	0.22782528227864665	0.48418798162747406	0.37422634225401724	0.22692094547606192	0.5346390438076498	0.39282841615715924	0.21825161966571394	0.010087569363644418	0.5418657705709716	0.36010215457391204	-0.2220058115646577	0.5650678151230267	0.33772287542803014	-0.11902843377236463	0.47753017047228113	0.17197323712373608	-0.014161554402424649	0.4468527992204184	0.1486982921875289	-0.025399986297312046	0.4380568024182899	0.13363067422825334	-0.0783286314390332	0.38871920909013846	0.17038918552882892
219	3.711864406779661	0.2961754017027011	0.7526225049956126	0.8916639206841905	0.2552680709808773	0.9153294997415284	1.2621072049102704	0.23001077225858846	1.2116217292722298	1.646022111086491	0.21802362464359917	0.9382054408659348	1.6681557537502643	0.2578435868841447	1.0378247848888071	1.6876158120664522	0.24292764503385875	1.311069951908819	1.6791172294497918	0.06485188434644792	0.796485702130189	0.8834918130810443	0.101241822737328	0.9633666406259254	1.250213208776101	0.12825985368819479	1.2701536263563087	1.6492981438224905	0.09814924177369921	0.9872669837284664	1.6788631093236375	0.05572857683708914	1.0814943746841208	1.6779765255605292	0.14414611346326817	1.351619180180437	1.6976414787113288	0.21201014883836367	0.5230324533634643	0.3151993052780967	0.22646310957555962	0.37936562207895125	0.11643599159903262	0.20883337730687848	0.38595997897970996	0.24823093627803416	0.4052419869529492	0.5599221976159101	0.3861948269035418	0.6313315711064846	0.568115493944882	0.3864324795677503	0.5626769559336239	0.4286617311253025	0.2364941126720882	0.46153942668743775	0.37884455467336875	0.22338884929687525	0.4794259110279338	0.36393944524835536	0.22953141468756041	0.5343176638194	0.39600887133047785	0.22074084582453096	0.0101420475571576	0.542181663916745	0.36005973289848464	-0.2219626298965247	0.5650063595918338	0.3376984176889388	-0.11863464454839208	0.4763611097532102	0.16933209284799894	-0.010443299435971602	0.4364086613382791	0.1569428884698305	-0.02273812966454455	0.4482761440515895	0.12976996146839495	-0.07810865275474997	0.3864352439541617	0.16721484248450577
220	3.7288135593220337	0.2962282914741814	0.7525326912479409	0.891671075228471	0.2554311481286471	0.9151996509283709	1.266382432613843	0.22988369186623936	1.2113061450471452	1.6460030109153347	0.2136661999881689	0.9244733211604823	1.6660468322239805	0.2589057857465815	1.0412772195526143	1.6919099298492513	0.2429142771411734	1.311255423528957	1.6792710408068943	0.06489600804784448	0.7965288898355528	0.8834942226726546	0.10125261631731838	0.9632036257068107	1.2501912413231255	0.13219680788355692	1.2501497021983936	1.6464312245429171	0.09821592352000288	0.9871062573539076	1.6786915783551206	0.05579579268580113	1.08121200012474	1.6777739413047164	0.13796012801008176	1.3409745495399914	1.6954627977283645	0.21206430411647803	0.5229944624607933	0.3151939214325106	0.22652915791192496	0.37943924341338464	0.11656584839340167	0.20890404505120116	0.38583863355994125	0.24827718122109613	0.4052433781138558	0.5595788660527365	0.38617768627616306	0.6256639801106376	0.5568129828990243	0.3895864307150794	0.5627213079670593	0.4284218464037588	0.2364675138813824	0.46314145575330123	0.36665761288768445	0.22752654553630483	0.4794333339329159	0.36364976706052016	0.22987120981453163	0.5342217052146794	0.3931208088443792	0.21824260269480245	0.014358717236207902	0.5295401041380104	0.36358739204613	-0.22187654914873997	0.5647269504893723	0.33772176051936326	-0.11836171450666878	0.4763101624641874	0.1695354106844881	-0.006542585656972499	0.42578222942807903	0.16394792270009573	-0.014774672907337723	0.4256081825132772	0.14195690385940804	-0.0779156387898794	0.3887255510909853	0.1703377190095832
221	3.7457627118644066	0.29626423220801895	0.7523318775318542	0.8916600849025761	0.2543700086256336	0.9114186088599757	1.2581957175475278	0.22975672635807373	1.211530786319176	1.641486902447162	0.21439866319312445	0.9241253347859054	1.665840258389856	0.2623324859173043	1.0398403758279757	1.688048506431331	0.24275326863131308	1.311171530527863	1.6790995365659682	0.06950287999098068	0.7801382380376862	0.8813075658916177	0.10125391989892203	0.9632699396482746	1.25014698656325	0.13207650929294582	1.2498492686954181	1.6463179396101788	0.09941488198208967	0.9745542119470308	1.676539622588159	0.05237392759856095	1.0654695576694002	1.675462451673923	0.13810328198129349	1.3408575187557714	1.6952306546025944	0.21202387053119642	0.5230542383742324	0.31520668854440437	0.2266330678158361	0.37951307954577546	0.11645565162643733	0.20888568485084186	0.3858329703282329	0.24831318226230298	0.40272083218265353	0.573513664453785	0.38248081800881356	0.6254888254680377	0.5563574666625312	0.3896403109969011	0.5628706664280401	0.4285869605440611	0.2362391957858642	0.4698514676835511	0.35432476255676054	0.23176957747388285	0.4841402276101158	0.3706617287928788	0.21376967075929212	0.538693710112572	0.39090872549563926	0.21501986195578	0.014373916344863402	0.5296582359635635	0.36355814025016187	-0.22174418116206698	0.5649236097788357	0.33765267233932994	-0.11842730833506653	0.47744779228143897	0.17219973923722776	-0.00629922927491898	0.42603618314767805	0.16405793265623503	-0.010384832794863996	0.427161485012199	0.14130941283340842	-0.07771757240979851	0.3891865538187118	0.17018897050363285
